<svg width="1120" height="105" viewBox="0 0 1120 105" fill="none" xmlns="http://www.w3.org/2000/svg">
<path d="M278.341 51.089C278.017 48.6771 276.074 47.1856 272.767 47.1856C269.418 47.1856 267.21 48.7367 267.219 51.2594C267.21 53.2197 268.446 54.4896 271.003 55.0009L273.27 55.4526C274.412 55.6827 274.932 56.1004 274.949 56.7566C274.932 57.5322 274.088 58.0861 272.818 58.0861C271.523 58.0861 270.662 57.5322 270.44 56.4668L266.869 56.6543C267.21 59.16 269.341 60.7026 272.81 60.7026C276.202 60.7026 278.631 58.9725 278.639 56.3901C278.631 54.4981 277.395 53.3646 274.855 52.8447L272.486 52.3674C271.267 52.1032 270.815 51.6856 270.824 51.0549C270.815 50.2708 271.702 49.7594 272.827 49.7594C274.088 49.7594 274.838 50.4498 275.017 51.2935L278.341 51.089Z" fill="#F8F8F8"/>
<path d="M280.925 65.356H284.556V58.3504H284.667C285.17 59.4413 286.269 60.66 288.383 60.66C291.366 60.66 293.692 58.2992 293.692 53.9185C293.692 49.4185 291.263 47.1856 288.391 47.1856C286.201 47.1856 285.153 48.4896 284.667 49.5549H284.505V47.356H280.925V65.356ZM284.479 53.9015C284.479 51.5663 285.468 50.0748 287.232 50.0748C289.03 50.0748 289.985 51.6344 289.985 53.9015C289.985 56.1856 289.013 57.7708 287.232 57.7708C285.485 57.7708 284.479 56.2367 284.479 53.9015Z" fill="#F8F8F8"/>
<path d="M299.846 60.6941C301.78 60.6941 303.033 59.8504 303.673 58.6316H303.775V60.4469H307.218V51.6174C307.218 48.4981 304.576 47.1856 301.661 47.1856C298.525 47.1856 296.462 48.6856 295.959 51.0719L299.317 51.3447C299.565 50.4754 300.34 49.8361 301.644 49.8361C302.88 49.8361 303.587 50.4583 303.587 51.5322V51.5833C303.587 52.4271 302.692 52.5379 300.417 52.7594C297.826 52.9981 295.499 53.8674 295.499 56.7907C295.499 59.3816 297.349 60.6941 299.846 60.6941ZM300.886 58.1884C299.769 58.1884 298.968 57.6685 298.968 56.6714C298.968 55.6487 299.812 55.1458 301.09 54.9668C301.883 54.856 303.178 54.6685 303.613 54.3788V55.768C303.613 57.1401 302.479 58.1884 300.886 58.1884Z" fill="#F8F8F8"/>
<path d="M315.95 60.7026C319.435 60.7026 321.626 58.6572 321.796 55.6486H318.37C318.157 57.0464 317.236 57.8305 315.992 57.8305C314.296 57.8305 313.197 56.4072 313.197 53.9015C313.197 51.4299 314.305 50.0151 315.992 50.0151C317.322 50.0151 318.174 50.893 318.37 52.1969H321.796C321.643 49.1714 319.35 47.1856 315.932 47.1856C311.961 47.1856 309.506 49.9384 309.506 53.9526C309.506 57.9327 311.918 60.7026 315.95 60.7026Z" fill="#F8F8F8"/>
<path d="M330.087 60.7026C333.325 60.7026 335.507 59.1259 336.018 56.6969L332.66 56.4754C332.294 57.4725 331.356 57.9924 330.146 57.9924C328.331 57.9924 327.18 56.7907 327.18 54.839V54.8305H336.095V53.8333C336.095 49.3844 333.402 47.1856 329.942 47.1856C326.089 47.1856 323.592 49.9214 323.592 53.9611C323.592 58.1117 326.055 60.7026 330.087 60.7026ZM327.18 52.5805C327.257 51.089 328.391 49.8958 330.001 49.8958C331.578 49.8958 332.669 51.0208 332.678 52.5805H327.18Z" fill="#F8F8F8"/>
<path d="M345.428 47.356H342.964V44.2197H339.334V47.356H337.544V50.0833H339.334V56.9015C339.317 59.4668 341.064 60.7367 343.697 60.6259C344.635 60.5918 345.3 60.4043 345.666 60.285L345.095 57.5833C344.916 57.6174 344.533 57.7026 344.192 57.7026C343.467 57.7026 342.964 57.4299 342.964 56.4242V50.0833H345.428V47.356Z" fill="#F8F8F8"/>
<path d="M347.793 60.4469H351.423V53.0407C351.423 51.4299 352.599 50.3219 354.202 50.3219C354.704 50.3219 355.395 50.4072 355.736 50.518V47.2964C355.412 47.2197 354.96 47.1685 354.594 47.1685C353.128 47.1685 351.926 48.0208 351.449 49.6401H351.312V47.356H347.793V60.4469Z" fill="#F8F8F8"/>
<path d="M360.971 60.6941C362.905 60.6941 364.158 59.8504 364.798 58.6316H364.9V60.4469H368.343V51.6174C368.343 48.4981 365.701 47.1856 362.786 47.1856C359.65 47.1856 357.587 48.6856 357.084 51.0719L360.442 51.3447C360.69 50.4754 361.465 49.8361 362.769 49.8361C364.005 49.8361 364.712 50.4583 364.712 51.5322V51.5833C364.712 52.4271 363.817 52.5379 361.542 52.7594C358.951 52.9981 356.624 53.8674 356.624 56.7907C356.624 59.3816 358.474 60.6941 360.971 60.6941ZM362.011 58.1884C360.894 58.1884 360.093 57.6685 360.093 56.6714C360.093 55.6487 360.937 55.1458 362.215 54.9668C363.008 54.856 364.303 54.6685 364.738 54.3788V55.768C364.738 57.1401 363.604 58.1884 362.011 58.1884Z" fill="#F8F8F8"/>
<path d="M382.896 47.356H379.052L376.342 56.7225H376.205L373.486 47.356H369.651L374.228 60.4469H378.319L382.896 47.356Z" fill="#F8F8F8"/>
<path d="M390.274 60.7026C393.513 60.7026 395.695 59.1259 396.206 56.6969L392.848 56.4754C392.481 57.4725 391.544 57.9924 390.334 57.9924C388.518 57.9924 387.368 56.7907 387.368 54.839V54.8305H396.283V53.8333C396.283 49.3844 393.589 47.1856 390.129 47.1856C386.277 47.1856 383.78 49.9214 383.78 53.9611C383.78 58.1117 386.243 60.7026 390.274 60.7026ZM387.368 52.5805C387.445 51.089 388.578 49.8958 390.189 49.8958C391.766 49.8958 392.856 51.0208 392.865 52.5805H387.368Z" fill="#F8F8F8"/>
<path d="M402.283 42.9924H398.652V60.4469H402.283V42.9924Z" fill="#F8F8F8"/>
<path d="M405.191 60.4469H408.822V47.356H405.191V60.4469ZM407.015 45.6685C408.097 45.6685 408.984 44.8418 408.984 43.8276C408.984 42.8219 408.097 41.9952 407.015 41.9952C405.941 41.9952 405.055 42.8219 405.055 43.8276C405.055 44.8418 405.941 45.6685 407.015 45.6685Z" fill="#F8F8F8"/>
<path d="M415.361 52.8788C415.369 51.1913 416.375 50.2026 417.841 50.2026C419.298 50.2026 420.176 51.1572 420.168 52.7594V60.4469H423.798V52.1117C423.798 49.0606 422.008 47.1856 419.281 47.1856C417.338 47.1856 415.932 48.1401 415.344 49.6657H415.19V47.356H411.73V60.4469H415.361V52.8788Z" fill="#F8F8F8"/>
<path d="M432.557 65.6288C436.299 65.6288 438.958 63.9242 438.958 60.5748V47.356H435.353V49.5549H435.217C434.731 48.4896 433.665 47.1856 431.475 47.1856C428.603 47.1856 426.174 49.4185 426.174 53.8759C426.174 58.231 428.535 60.2594 431.484 60.2594C433.572 60.2594 434.739 59.2111 435.217 58.1288H435.37V60.5236C435.37 62.3219 434.219 63.0208 432.643 63.0208C431.04 63.0208 430.231 62.3219 429.932 61.5293L426.575 61.981C427.009 64.0435 429.029 65.6288 432.557 65.6288ZM432.634 57.5322C430.853 57.5322 429.881 56.1174 429.881 53.8589C429.881 51.6344 430.836 50.0748 432.634 50.0748C434.398 50.0748 435.387 51.5663 435.387 53.8589C435.387 56.1685 434.381 57.5322 432.634 57.5322Z" fill="#F8F8F8"/>
<path d="M446.571 60.6685C447.662 60.6685 448.608 59.7566 448.616 58.6231C448.608 57.5066 447.662 56.5947 446.571 56.5947C445.446 56.5947 444.517 57.5066 444.526 58.6231C444.517 59.7566 445.446 60.6685 446.571 60.6685Z" fill="#FF57B2"/>
<path d="M219.881 40L210 51.5045L219.881 63.007L222.217 59.3298L215.559 51.5025L222.217 43.6752L219.881 40ZM224.205 62.7323H228.542L235.436 40.2119H231.097L224.205 62.7323ZM240.119 40L237.783 43.6772L244.441 51.5045L237.783 59.3318L240.119 63.009L250 51.5065L240.119 40Z" fill="#FF57B2"/>
</svg>
